# File created by Blade
# Date/Time:  Wed Jan 28 15:39:58 2015
#---------------------------------------------------------
:version 1.10
:name HOM
:units
  mass 1.0
  length 1.000000
  angle deg
:documentation
     Acclaim Skeleton File
:root
   axis xyz
   order TX TY TZ RX RY RZ
   position 0.000000 0.000000 0.000000
   orientation 0 0 0
:bonedata
   begin
      id 1
      name Spine_dum
      direction 0.000000 1.000000 0.000000
      length 6.864287
      axis 0.0 0.0 0.0 xyz
   end
   begin
      id 2
      name LeftUpLeg_dum
      direction 1.000000 0.000000 0.000000
      length 4.117376
      axis 0.0 0.0 0.0 xyz
   end
   begin
      id 3
      name RightUpLeg_dum
      direction -1.000000 0.000000 0.000000
      length 4.117376
      axis 0.0 0.0 0.0 xyz
   end
   begin
      id 4
      name Spine
      direction 0.000000 1.000000 0.000000
      length 0.000000
      axis 0.0 0.0 0.0 xyz
      dof rx ry rz
   end
   begin
      id 5
      name Spine_dum1
      direction 0.000000 1.000000 0.000000
      length 15.393827
      axis 0.0 0.0 0.0 xyz
   end
   begin
      id 6
      name Spine_dum2
      direction 0.000000 1.000000 0.000000
      length 9.314826
      axis 0.0 0.0 0.0 xyz
   end
   begin
      id 7
      name Spine_dum3
      direction 0.000000 1.000000 0.000000
      length 9.314826
      axis 0.0 0.0 0.0 xyz
   end
   begin
      id 8
      name Head
      direction 0.000000 1.000000 0.000000
      length 4.527550
      axis 0.0 0.0 0.0 xyz
      dof rx ry rz
   end
   begin
      id 9
      name LeftShoulder
      direction 1.000000 0.000000 0.000000
      length 8.275398
      axis 0.0 0.0 -90.0 xyz
      dof rx ry rz
   end
   begin
      id 10
      name LeftArm
      direction 1.000000 0.000000 0.000000
      length 12.002200
      axis 0.0 0.0 -90.0 xyz
      dof rx ry rz
   end
   begin
      id 11
      name LeftForeArm
      direction 1.000000 0.000000 0.000000
      length 10.144633
      axis 0.0 0.0 -90.0 xyz
      dof ry rz rx
   end
   begin
      id 12
      name LeftHand
      direction 0.000000 0.000000 0.000000
      length 0.000000
      axis 0.0 0.0 -90.0 xyz
      dof rx ry rz
   end
   begin
      id 13
      name LeftHand_dum1
      direction 0.000000 0.000000 0.000000
      length 0.000000
      axis 0.0 0.0 -90.0 xyz
   end
   begin
      id 14
      name LeftHand_dum2
      direction 1.000000 0.000000 0.000000
      length 3.937000
      axis 0.0 0.0 -90.0 xyz
   end
   begin
      id 15
      name LeftHandThumb1
      direction 0.000000 0.000000 1.000000
      length 3.937000
      axis 0.0 0.0 -90.0 xyz
      dof rx rz ry
   end
   begin
      id 16
      name RightShoulder
      direction -1.000000 0.000000 0.000000
      length 8.275398
      axis 0.0 0.0 90.0 xyz
      dof rx ry rz
   end
   begin
      id 17
      name RightArm
      direction -1.000000 0.000000 0.000000
      length 12.002200
      axis 0.0 0.0 90.0 xyz
      dof rx ry rz
   end
   begin
      id 18
      name RightForeArm
      direction -1.000000 0.000000 0.000000
      length 10.144633
      axis 0.0 0.0 90.0 xyz
      dof ry rz rx
   end
   begin
      id 19
      name RightHand
      direction 0.000000 0.000000 0.000000
      length 0.000000
      axis 0.0 0.0 90.0 xyz
      dof rx ry rz
   end
   begin
      id 20
      name RightHand_dum1
      direction 0.000000 0.000000 0.000000
      length 0.000000
      axis 0.0 0.0 90.0 xyz
   end
   begin
      id 21
      name RightHand_dum2
      direction -1.000000 0.000000 0.000000
      length 3.937000
      axis 0.0 0.0 90.0 xyz
   end
   begin
      id 22
      name RightHandThumb1
      direction 0.000000 0.000000 1.000000
      length 3.937000
      axis 0.0 0.0 90.0 xyz
      dof rx rz ry
   end
   begin
      id 23
      name LeftUpLeg
      direction 0.000000 -1.000000 0.000000
      length 19.394322
      axis 0.0 0.0 0.0 xyz
      dof rx ry rz
   end
   begin
      id 24
      name LeftLeg
      direction 0.000000 -1.000000 0.000000
      length 17.609563
      axis 0.0 0.0 0.0 xyz
      dof rx ry rz
   end
   begin
      id 25
      name LeftFoot
      direction 0.000000 -0.258819 0.965926
      length 6.085393
      axis 15.0 0.0 0.0 xyz
      dof rx ry rz
   end
   begin
      id 26
      name LeftToeBase
      direction 0.000000 0.000000 1.000000
      length 2.952750
      axis 0.0 0.0 0.0 xyz
      dof rx ry rz
   end
   begin
      id 27
      name RightUpLeg
      direction 0.000000 -1.000000 0.000000
      length 19.394322
      axis 0.0 0.0 0.0 xyz
      dof rx ry rz
   end
   begin
      id 28
      name RightLeg
      direction 0.000000 -1.000000 0.000000
      length 17.609563
      axis 0.0 0.0 0.0 xyz
      dof rx ry rz
   end
   begin
      id 29
      name RightFoot
      direction 0.000000 -0.258819 0.965926
      length 6.085393
      axis 15.0 0.0 0.0 xyz
      dof rx ry rz
   end
   begin
      id 30
      name RightToeBase
      direction 0.000000 0.000000 1.000000
      length 2.952750
      axis 0.0 0.0 0.0 xyz
      dof rx ry rz
   end
:hierarchy
   begin
      root Spine_dum LeftUpLeg_dum RightUpLeg_dum
      Spine_dum Spine
      LeftUpLeg_dum LeftUpLeg
      RightUpLeg_dum RightUpLeg
      Spine Spine_dum1 Spine_dum2 Spine_dum3
      Spine_dum1 Head
      Spine_dum2 LeftShoulder
      Spine_dum3 RightShoulder
      LeftShoulder LeftArm
      LeftArm LeftForeArm
      LeftForeArm LeftHand
      LeftHand LeftHand_dum1 LeftHand_dum2
      LeftHand_dum1 LeftHandThumb1
      RightShoulder RightArm
      RightArm RightForeArm
      RightForeArm RightHand
      RightHand RightHand_dum1 RightHand_dum2
      RightHand_dum1 RightHandThumb1
      LeftUpLeg LeftLeg
      LeftLeg LeftFoot
      LeftFoot LeftToeBase
      RightUpLeg RightLeg
      RightLeg RightFoot
      RightFoot RightToeBase
   end

# File created by Blade
# Date/Time:  Wed Jan 28 15:40:07 2015
# Frame Rate: 120.000 fps
#------------------------------------------------------
:FULLY-SPECIFIED
:DEGREES
1442
root -8.988130 40.401524 -16.598560 25.065165 -42.731642 43.729440
Spine 14.065271 0.244618 23.924863
Head -43.476244 -33.956319 7.079890
LeftShoulder -19.578968 13.420370 -8.560306
LeftArm 5.609700 16.419283 -91.351824
LeftForeArm -17.757400 -0.000000 6.975965
LeftHand -1.626253 -0.000000 -10.393384
LeftHandThumb1 -26.253704 0.000000 33.147579
RightShoulder -17.376793 8.714833 -45.623907
RightArm 15.964760 83.747855 43.208051
RightForeArm 4.402906 -0.000000 102.711529
RightHand -12.835580 -0.000000 -40.344843
RightHandThumb1 -24.326973 -0.000000 -32.862282
LeftUpLeg -17.021838 1.883280 19.611966
LeftLeg 152.698511 -0.000000 -0.000000
LeftFoot 27.040162 -1.528999 -24.936765
LeftToeBase 3.853605 -0.000000 -0.000000
RightUpLeg -59.221996 -12.376465 -16.917790
RightLeg 20.024327 -0.000000 -0.000000
RightFoot -26.322464 -21.596982 14.374712
RightToeBase 9.768190 -0.000000 -0.000000
1443
root -8.988131 40.400535 -16.610607 25.037816 -42.714010 43.648590
Spine 14.083904 0.321380 23.941061
Head -43.433474 -33.951010 6.992186
LeftShoulder -19.529797 13.366690 -8.533534
LeftArm 5.513261 16.297756 -91.408837
LeftForeArm -17.541711 -0.000000 7.068498
LeftHand -1.709162 -0.000000 -10.454423
LeftHandThumb1 -26.253704 0.000000 33.147579
RightShoulder -17.323376 8.662172 -45.602023
RightArm 14.712561 83.544443 41.815320
RightForeArm 4.456887 -0.000000 102.613507
RightHand -12.799958 -0.000000 -40.472363
RightHandThumb1 -24.326973 -0.000000 -32.862282
LeftUpLeg -17.091155 1.884492 19.567850
LeftLeg 152.686154 -0.000000 -0.000000
LeftFoot 27.127589 -1.549858 -24.801994
LeftToeBase 3.623043 -0.000000 -0.000000
RightUpLeg -59.134578 -12.344241 -16.850588
RightLeg 19.976946 -0.000000 -0.000000
RightFoot -26.294317 -21.571949 14.361691
RightToeBase 9.735411 -0.000000 -0.000000
1444
root -8.987771 40.399133 -16.622900 24.986982 -42.705427 43.584118
Spine 14.109352 0.365027 23.935958
Head -43.326326 -33.879160 6.848448
LeftShoulder -19.600538 13.331215 -8.547009
LeftArm 5.507224 16.309251 -91.408630
LeftForeArm -17.460070 0.000000 7.122810
LeftHand -1.737520 -0.000000 -10.341793
LeftHandThumb1 -26.253704 0.000000 33.147579
RightShoulder -17.262404 8.519772 -45.551284
RightArm 14.715487 83.416474 41.699579
RightForeArm 4.393803 0.000000 102.501810
RightHand -12.701617 -0.000000 -40.464037
RightHandThumb1 -24.326973 -0.000000 -32.862282
LeftUpLeg -17.115229 1.895032 19.496788
LeftLeg 152.689253 -0.000000 -0.000000
LeftFoot 27.040895 -1.435090 -24.972044
LeftToeBase 3.992978 -0.000000 -0.000000
RightUpLeg -59.038627 -12.303237 -16.798530
RightLeg 19.925196 -0.000000 -0.000000
RightFoot -26.269611 -21.585016 14.337094
RightToeBase 9.789825 -0.000000 -0.000000
1445
root -8.989499 40.397269 -16.634247 24.951107 -42.679382 43.503357
Spine 14.124578 0.452898 23.963101
Head -43.221305 -33.884020 6.704634
LeftShoulder -19.652758 13.370036 -8.610128
LeftArm 5.612603 16.305766 -91.349937
LeftForeArm -17.484425 -0.000000 7.164892
LeftHand -1.586998 -0.000000 -9.972668
LeftHandThumb1 -26.253704 0.000000 33.147579
RightShoulder -17.262951 8.451645 -45.562402
RightArm 14.023130 83.184843 40.952377
RightForeArm 4.329627 -0.000000 102.406315
RightHand -12.684242 -0.000000 -40.377273
RightHandThumb1 -24.326973 -0.000000 -32.862282
LeftUpLeg -17.132374 1.920365 19.449035
LeftLeg 152.691645 -0.000000 -0.000000
LeftFoot 26.918649 -1.342353 -25.111705
LeftToeBase 4.232493 -0.000000 -0.000000
RightUpLeg -58.938240 -12.265571 -16.738055
RightLeg 19.882117 -0.000000 -0.000000
RightFoot -26.255105 -21.576798 14.332800
RightToeBase 9.771347 -0.000000 -0.000000
1446
root -8.990394 40.395578 -16.645338 24.914081 -42.687210 43.439690
Spine 14.128461 0.591180 23.958363
Head -43.097612 -33.876262 6.556149
LeftShoulder -19.639432 13.316572 -8.618829
LeftArm 5.549555 16.244431 -91.360315
LeftForeArm -17.601061 -0.000000 7.175617
LeftHand -1.350406 -0.000000 -9.698960
LeftHandThumb1 -26.253704 0.000000 33.147579
RightShoulder -17.273710 8.439950 -45.584556
RightArm 13.054436 82.878572 39.915264
RightForeArm 4.249186 -0.000000 102.306525
RightHand -12.721026 -0.000000 -40.497848
RightHandThumb1 -24.326973 -0.000000 -32.862282
LeftUpLeg -17.143940 2.013253 19.373060
LeftLeg 152.674222 -0.000000 -0.000000
LeftFoot 26.840149 -1.312721 -24.965047
LeftToeBase 4.088916 -0.000000 -0.000000
RightUpLeg -58.856179 -12.191857 -16.724422
RightLeg 19.838337 -0.000000 -0.000000
RightFoot -26.315187 -21.622613 14.454973
RightToeBase 9.998277 -0.000000 -0.000000
